<svg xmlns="http://www.w3.org/2000/svg" version="1" width="550" height="550" viewBox="0 0 550 550" preserveAspectRatio="xMidYMid" id="svg9" sodipodi:docname="awgm_logo.svg" inkscape:version="1.3 (0e150ed, 2023-07-21)" xmlns:inkscape="http://www.inkscape.org/namespaces/inkscape" xmlns:sodipodi="http://sodipodi.sourceforge.net/DTD/sodipodi-0.dtd" xmlns:svg="http://www.w3.org/2000/svg"><metadata><rdf:RDF xmlns:rdf="http://www.w3.org/1999/02/22-rdf-syntax-ns#" xmlns:dc="http://purl.org/dc/elements/1.1/"><rdf:Description><dc:creator>Ware&amp;Soft</dc:creator><dc:source>https://wareandsoft.com/</dc:source></rdf:Description></rdf:RDF></metadata><defs id="defs9"></defs><sodipodi:namedview id="namedview9" pagecolor="#ffffff" bordercolor="#000000" borderopacity="0.25" inkscape:showpageshadow="2" inkscape:pageopacity="0.0" inkscape:pagecheckerboard="0" inkscape:deskcolor="#d1d1d1" inkscape:zoom="0.89624027" inkscape:cx="186.33396" inkscape:cy="328.59492" inkscape:window-width="1472" inkscape:window-height="816" inkscape:window-x="0" inkscape:window-y="37" inkscape:window-maximized="1" inkscape:current-layer="svg9"></sodipodi:namedview><rect style="display:none;fill:#16161e;fill-opacity:1;stroke:#000000;stroke-width:4.223;stroke-linecap:square;stroke-opacity:1;paint-order:fill markers stroke" id="rect16" width="550" height="550" x="0" y="0" inkscape:label="bg"></rect><g id="g103" inkscape:label="logo" transform="matrix(1.2090726,0,0,1.2090726,-57.773414,-56.207997)">
    <path style="fill:#7aa1f7;fill-opacity:1;stroke:none;stroke-width:4.223;stroke-linecap:square;stroke-opacity:1;paint-order:fill markers stroke" d="m 314.13069,342.61231 c -1.55,0.3125 -1.55078,1.93868 -1.30078,5.13867 0.3,5.39999 0.002,5.09922 8.10156,8.19922 2,0.7 4.49844,2.89922 5.89844,5.19922 1.6,2.59999 3.20078,3.90117 4.30078,3.70117 1.4,-0.3 1.69922,-1.60002 1.69922,-8.5 h 0.10156 v -8.20117 l -8.20117,-2.79883 c -5.94998,-2.05 -9.04961,-3.05078 -10.59961,-2.73828 z" id="path31" inkscape:label="nose"></path>
    <path style="fill:#7aa1f7;fill-opacity:1;stroke:none;stroke-width:4.223;stroke-linecap:square;stroke-opacity:1;paint-order:fill markers stroke" d="m 247.03108,277.04981 c -5.29998,0 -9.70117,0.40078 -9.70117,0.80078 0,1.8 8.00117,13.19882 10.70117,15.29883 2.6,1.99999 4.00002,2.30077 15.5,2.30077 6.99998,0 12.69922,-0.20078 12.69922,-0.30077 v 0 c 0.10096,-0.71602 -4.49883,-4.39923 -9.79883,-9.19923 l -9.80078,-8.90039 z" id="path30" inkscape:label="eye"></path>
    <!-- <path style="fill:#7aa1f7;fill-opacity:1;stroke:none;stroke-width:4.223;stroke-linecap:square;stroke-opacity:1;paint-order:fill markers stroke" d="m 320.951,238.41504 c 0.0348,0.005 0.0614,0.0164 0.0801,0.0352 0.9,0.8 -1.70117,19.3004 -3.70117,26.40039 -1,3.79999 -2.49883,6.49922 -3.29883,6.69922 -0.8,0.1 -3.3,-0.49922 -5.5,-1.19922 -2.3,-0.8 -6.00039,-1.89961 -8.40039,-2.59961 -4,-1 -4.29922,-1.40158 -6.19922,-7.10156 l -2,-6 9.29881,-4.59965 c 5.19998,-2.5 11.70078,-6.19883 14.30078,-8.29883 2.625,-1.96875 4.8988,-3.41064 5.41992,-3.33594 z" id="path29" inkscape:label="small horn"></path> -->
    <!-- <path style="fill:#7aa1f7;fill-opacity:1;stroke:none;stroke-width:4.223;stroke-linecap:square;stroke-opacity:1;paint-order:fill markers stroke" d="m 400.53108,221.75098 c 0.2,0 -0.49961,4.30001 -1.59961,9.5 -4.69998,21.79996 -13.50158,42.89965 -25.10156,60.59961 -7.69998,11.69998 -21.69883,29.19922 -23.29883,29.19922 -0.7,0 -4.90079,-2.70001 -9.30078,-6 l -0.0996,-0.0996 c -4.39999,-3.3 -8.90039,-7 -9.90039,-8 -1.7,-2 -5.69883,-17.80001 -5.79883,-23 0,-2.3 0.59844,-3 3.89844,-4 6.19998,-2 19.7008,-8.7008 26.80078,-13.30078 14.39998,-9.19999 26.2008,-20.69847 38.30078,-36.89844 3.2,-4.39999 5.89961,-8 6.09961,-8 z" id="path28" inkscape:label="big horn"></path> -->
    <!-- <path style="fill:#7aa1f7;fill-opacity:1;stroke:none;stroke-width:4.223;stroke-linecap:square;stroke-opacity:1;paint-order:fill markers stroke" d="m 262.27913,144.31348 c 0.76406,-0.16406 0.72656,1.71212 0.35156,8.53711 -0.4,7.49998 -1.10039,10.59962 -3.40039,15.09961 -2.5,5.09999 -7.99883,10.69922 -10.29883,10.69922 -0.5,0 -4.10157,-2.09923 -8.10156,-4.69922 l 0.10156,0.0996 c -3.89998,-2.6 -7.3,-5.00039 -7.5,-5.40039 -0.2,-0.5 5.59885,-5.59845 12.79883,-11.39844 7.19998,-5.79999 13.9,-11.40117 15,-12.20117 0.45,-0.4 0.79414,-0.68163 1.04883,-0.73633 z" id="path27" inkscape:label="ear"></path> -->
    <path style="display:inline;fill:#7aa1f7;fill-opacity:1;stroke:#7aa1f7;stroke-width:4.223;stroke-linecap:square;stroke-opacity:1;paint-order:fill markers stroke" d="m 275.32991,63.250975 53.40039,19.39844 c 76.89984,27.899945 111.19961,40.500395 115.59961,42.400395 l 3.80078,1.59961 v 13.10156 c 0,19.29996 -1.79961,60.69926 -3.59961,81.69922 -5.89998,69.19986 -21.20123,122.19968 -45.70117,158.59961 -16.19997,23.79995 -39.39889,47.90121 -65.79883,67.70117 -19.89996,14.79997 -54.7,37.2 -58,37 -0.7,0 -7.80119,-4.0004 -15.70117,-8.90039 v -0.0996 c -22.19996,-13.89998 -35.29846,-22.90042 -48.89844,-33.9004 -14.49996,-11.79998 -34.40119,-31.00002 -43.70117,-42.5 l -6.40039,-8.09961 1.20117,-6.20117 c 0.7,-3.4 2.00039,-9.29962 2.90039,-13.09961 l 1.5,-6.90039 9.69922,-6.29883 9.69922,-6.40039 5.30078,2.90039 c 20.69996,11.39997 93,47.69922 95,47.69922 1.8,-0.1 27.39963,-7.30079 34.59961,-9.80078 0.9,-0.3 3.40078,1.00156 5.80078,3.10156 2.3,2 4.59961,3.69961 5.09961,3.59961 0.4,0 6.80002,-8.39963 14,-18.59961 l 13.19922,-18.60156 -0.59961,-15.79883 -0.59961,-15.80078 7.80078,-8.79883 c 25.99996,-29.59994 41.29845,-63.30047 47.39844,-104.40039 1.9,-13.39998 3.90078,-43.09961 2.80078,-43.09961 -0.3,0 -2.40039,3.10001 -4.40039,7 -10.09998,18.29996 -21.29924,36.39924 -27.69922,44.69922 -7.99998,10.29998 -21.30041,23.19962 -29.90039,29.09961 -8.29998,5.59998 -24.69922,13.70117 -24.69922,12.20117 0,-0.7 0.7,-4.60001 1.5,-8.5 1.4,-6.99998 2.29844,-42.5 0.89844,-42.5 -0.3,0 -6.19924,4.30001 -13.19922,9.5 -14.59997,10.89998 -28.80078,18.69883 -32.30078,17.79883 -3.7,-0.9 -15.19844,-10.69883 -16.39844,-13.79883 -0.6,-1.5 -3.60078,-11.50002 -6.80078,-22 l -5.59961,-19.20117 5.09961,-5.40039 c 2.8,-3 5.99922,-7.19844 7.19922,-9.39844 2.8,-5.29999 5.30078,-18.10158 5.30078,-26.10156 0,-8.49999 -2.09922,-24.69883 -3.19922,-24.29883 -1,0.4 -13.20041,9.79963 -26.40039,20.59961 -5.29998,4.29999 -10.00078,7.90039 -10.30078,7.90039 -0.3,0 -1.20039,-2.90079 -1.90039,-6.30078 -1.4,-7.09999 -7.79883,-21.10041 -11.79883,-25.90039 l -2.5,-3.09961 -4.90039,2.59961 c -6.19998,3.39999 -20.3,16.50157 -23.5,22.10156 -1.4,2.5 -3.19922,4.5 -3.69922,4.5 -0.6,0 -11.20002,-4.60119 -23.5,-10.20117 l -22.7595,-5.53077 -17.94167,4.53077 c -10.09998,5.09998 -18.60039,9.20117 -18.90039,9.20117 -0.3,0 -0.5,-4.0004 -0.5,-8.90039 v -9 l 6.40039,-2.40039 c 3.5,-1.3 42.40008,-15.50004 86.5,-31.500005 z" id="path26" inkscape:label="general bg"></path>
    <path style="display:none;fill:none;fill-opacity:1;stroke:#7aa1f7;stroke-width:4.223;stroke-linecap:square;stroke-opacity:1;paint-order:fill markers stroke" d="m 275.43147,51.049805 -91.40039,33.30078 C 133.73118,102.65055 92.130692,118.04981 91.630692,118.54981 l 1.335229,39.3378 27.764379,-9.93741 c 9.69998,-5.09999 18.50039,-6.787 19.40039,-6.787 0.9,-0.1 10.70041,1.48779 21.90039,6.58778 l 20.29883,9.19922 0.20117,11.69922 c 0.2,9.09998 0.79883,13.30157 2.79883,19.10156 1.3,3.99999 2.80117,7.39844 3.20117,7.39844 0.4,0 2.89883,-0.89844 5.29883,-1.89844 l 4.60156,-2 -2.60156,-7.40039 c -2.1,-6.19999 -2.49961,-8.80119 -2.09961,-16.70117 0.4,-12.09998 3.50119,-18.69846 13.20117,-28.39844 3.9,-3.79999 7.4,-7 8,-7 0.5,0 2.29883,3.10001 3.79883,7 2.6,5.99999 3,8.19963 3,17.59961 0,10.19998 -0.19922,11.10001 -3.69922,18.5 -2.1,4.29999 -5.4,10.39961 -7.5,13.59961 -2,3.19999 -3.70117,6.09922 -3.70117,6.69922 0,0.79999 7.60117,6.20117 8.70117,6.20117 0.2,0 3.29883,-4.80119 6.79883,-10.70117 3.5,-5.89999 6.4,-10.69922 6.5,-10.69922 0.2,0 3.90079,2.30039 8.30078,4.90039 6.79998,4.19999 8.19922,5.5 9.19922,9 0.7,2.1 3.6,11.90041 6.5,21.40039 7.99998,26.59995 6.90041,24.59963 17.90039,32.59961 l 9.70117,7.19922 3.09961,9.20117 c 1.7,5.09999 3.5,9.89961 4,10.59961 0.7,1.1 14.59924,5.69883 23.69922,7.79883 2.4,0.5 2.80039,1.30001 3.90039,7.5 0.6,3.89999 2.10039,10.50039 3.40039,14.90039 2,7.99998 2.10041,8.10079 9.40039,13.80078 4,3.29999 9.6,7.39922 12.5,9.19922 4.8,2.99999 5.29844,3.69961 5.89844,8.09961 0.3,2.59999 0.60156,8.9 0.60156,14 v 9.30078 l -8.20117,11.5 c -4.5,6.29998 -8.69883,11.79961 -9.29883,12.09961 -0.5,0.4 -4.80039,-1.8004 -9.40039,-4.90039 -4.59998,-3.1 -10.6,-6.79922 -13.5,-8.19922 -5.59998,-2.8 -22.39961,-8.90039 -24.59961,-8.90039 -0.7,0 -1.50039,1.20039 -1.90039,2.90039 -0.3,1.5 -0.80117,3.70039 -1.20117,4.90039 -0.5,1.8 0.30002,2.49883 7,4.79883 10.09998,3.59999 23.30078,9.70117 23.30078,10.70117 0,0.5 -5.10002,2.39961 -11.5,4.09961 l -11.5,3.30078 -31.69922,-16 c -49.2999,-24.79995 -64.10117,-33.10079 -65.70117,-36.80078 -0.7,-1.8 -5.99923,-17.90082 -11.69922,-35.80078 -5.59998,-17.89997 -10.39961,-32.59884 -10.59961,-32.79883 -0.4,-0.4 -9.80078,2.89999 -9.80078,3.5 0,1.39999 9.09962,30.99926 15.09961,49.19922 5.79998,17.59996 6.70078,21.00117 5.30078,21.70117 -0.8,0.5 -5.9008,3.79844 -11.30078,7.39844 l -9.69922,6.40039 -3.90039,17.70117 -4,17.59961 5.90039,8 c 7.49998,9.69997 27.49885,30.49963 39.79883,41.0996 11.19998,9.49998 28.20119,22.40042 40.20117,30.4004 8.69998,5.69999 40.2,24.80039 41,24.90039 0.3,0 5.79885,-3.1004 12.29883,-6.90039 v -0.0996 c 34.79992,-19.99996 72.00004,-48.10082 92.5,-69.80078 34.49992,-36.69993 53.10158,-73.50012 65.60156,-129.5 9.09998,-40.89993 12.99883,-83.19935 13.29883,-143.19923 l 0.0996,-30.60156 -10.69922,-4 c -5.89998,-2.1 -31.40084,-11.59885 -56.80078,-20.798835 -25.29996,-9.19998 -61.79848,-22.50002 -80.89844,-29.5 z" id="path25" inkscape:label="rhinoborder"></path>
    <path style="display:none;fill:none;fill-opacity:1;stroke:#7aa1f7;stroke-width:4.223;stroke-linecap:square;stroke-opacity:1;paint-order:fill markers stroke" d="m 275.32991,24.350585 c 1,0 22.70123,7.70002 48.20117,17 25.49996,9.29998 56.30041,20.60001 68.40039,25 62.29988,22.59995 89,32.59922 91,34.199225 3.1,2.39999 -0.002,93.80125 -4.60156,134.70117 -4.8,43.49991 -15.09963,87.19928 -28.09961,118.19922 -25.79994,61.99987 -73.70016,111.79931 -154,160.19922 -9.19998,5.49998 -17.59961,10.50156 -18.59961,11.10155 -1.5,0.8 -4.29963,-0.30157 -13.59961,-5.60156 l -0.20117,-0.19922 C 201.13003,483.15027 152.53024,440.75089 124.2303,397.25098 c -14.19998,-21.99996 -22.39924,-39.20005 -31.199218,-66 -14.99996,-45.39991 -22.59961,-93.40131 -25.59961,-162.70117 -1.1,-25.19995 -1.10156,-61.20041 -0.10156,-65.90039 0.7,-3.500005 -5.99849,-0.79974 165.701168,-63.599615 22.19996,-8.09999 41.09883,-14.69922 42.29883,-14.69922 z" id="path24" inkscape:label="internal shield"></path>
    <path style="display:none;fill:none;fill-opacity:1;stroke:#7aa1f7;stroke-width:4.223;stroke-linecap:square;stroke-opacity:1;paint-order:fill markers stroke" d="m 275.32991,12.049805 c -0.8,0 -11.70002,3.80079 -24,8.30078 -12.49998,4.59999 -33.79885,12.39883 -47.29883,17.29883 -37.29992,13.69997 -144.100388,53.00117 -145.900388,53.70117 -4.1,1.5 -3.40039,75.798925 1.09961,124.298835 3.8,39.99992 8.90002,70.40123 17,99.70117 15.59996,56.39988 36.599688,93.70008 75.099608,133 28.79994,29.39994 63.60086,55.69887 106.80078,80.29883 8.99998,5.09998 16.80078,9.30078 17.30078,9.30078 0.5,0 6.29846,-3.1004 12.89844,-6.90039 h 0.10156 c 74.89986,-42.89992 123.29967,-86.3005 154.59961,-138.40039 28.19994,-46.89991 44.59923,-111.80018 50.19922,-199.5 1.3,-20.39996 1.90117,-99.698835 0.70117,-100.798835 -0.8,-0.8 -26.10036,-10.10092 -206.5,-76.30078 -5.89998,-2.1 -11.40156,-4 -12.10156,-4 z" id="rect9" inkscape:label="external shield"></path>
  </g></svg>